<svg xmlns="http://www.w3.org/2000/svg" width="1200" height="630" viewBox="0 0 1200 630" font-family="Georgia, 'Times New Roman', serif" role="img" aria-labelledby="title">
  <title id="title">Flick — one-time encrypted secret</title>
  <defs>
    <radialGradient id="glow" cx="50%" cy="34%" r="62%">
      <stop offset="0%" stop-color="#1f6b57" stop-opacity="0.28" />
      <stop offset="100%" stop-color="#18211f" stop-opacity="0" />
    </radialGradient>
  </defs>

  <rect width="1200" height="630" fill="#18211f" />
  <rect width="1200" height="630" fill="url(#glow)" />
  <rect x="20" y="20" width="1160" height="590" rx="28" fill="none" stroke="#2a3632" stroke-width="2" />

  <!-- Flick mark (favicon paths, scaled 1.55x, centred at the top) -->
  <g transform="translate(501, 92) scale(1.55)">
    <path d="M39 59V45c0-14 11-25 25-25s25 11 25 25v14h-12V45c0-7-6-13-13-13s-13 6-13 13v14H39Z" fill="#f7f8f5" />
    <rect x="30" y="54" width="68" height="54" rx="8" fill="#1f6b57" />
    <path d="M64 69a10 10 0 0 0-5 19v8h10v-8a10 10 0 0 0-5-19Z" fill="#f7f8f5" />
    <path d="M90 24 104 10l8 8-14 14 14 14-8 8-14-14-14 14-8-8 14-14-14-14 8-8 14 14Z" fill="#c7902e" />
  </g>

  <text x="600" y="415" text-anchor="middle" font-size="104" fill="#f7f8f5">Flick</text>
  <text x="600" y="483" text-anchor="middle" font-size="40" fill="#c9d3ce"
    font-family="Helvetica, Arial, sans-serif">One-time encrypted secret</text>
  <text x="600" y="545" text-anchor="middle" font-size="25" fill="#c7902e" letter-spacing="4"
    font-family="Helvetica, Arial, sans-serif">BURNS AFTER A SINGLE OPEN</text>
</svg>
